<svg xmlns="http://www.w3.org/2000/svg" width="341.333" height="341.333" preserveAspectRatio="xMidYMid meet" version="1.0" viewBox="0 0 256 256"><metadata>Created by potrace 1.14, written by Peter Selinger 2001-2017</metadata><g fill="#000" stroke="none"><path d="M1137 2254 c-1 -1 -22 -5 -46 -8 -115 -14 -257 -77 -332 -148 -63 -59 -92 -101 -123 -180 -33 -85 -37 -136 -10 -151 22 -13 17 -12 114 -21 92 -9 148 -16 177 -21 27 -4 59 29 68 74 8 39 63 103 108 127 18 9 64 18 102 21 140 9 207 -62 211 -224 2 -45 -1 -85 -5 -87 -4 -3 -30 -8 -57 -11 -27 -3 -67 -8 -89 -10 -22 -3 -62 -7 -89 -11 -44 -5 -88 -12 -165 -28 -219 -46 -382 -192 -427 -382 -48 -208 15 -416 156 -511 82 -56 152 -74 278 -73 176 0 328 66 436 187 l19 23 34 -50 c18 -27 57 -72 85 -100 59 -58 88 -63 133 -24 17 14 55 47 85 72 130 111 142 124 135 151 -4 14 -22 46 -41 72 -19 26 -44 69 -56 96 -21 46 -22 61 -24 418 -1 204 -4 391 -8 417 -13 96 -48 168 -110 231 -102 104 -257 156 -463 155 -51 -1 -94 -2 -96 -4z m268 -959 c1 -154 -24 -240 -92 -315 -112 -125 -283 -97 -324 53 -15 57 -6 154 19 204 52 101 177 158 346 158 l51 0 0 -100z" transform="translate(0.000000,256.000000) scale(0.100000,-0.100000)"/><path d="M2102 865 c-71 -26 -128 -60 -136 -82 -7 -16 10 -16 124 5 66 12 171 7 181 -8 14 -20 3 -121 -21 -205 -22 -78 -24 -95 -10 -95 18 0 61 55 90 115 32 68 38 92 46 186 6 60 4 69 -16 89 -19 19 -30 21 -110 19 -61 -2 -108 -10 -148 -24z" transform="translate(0.000000,256.000000) scale(0.100000,-0.100000)"/><path d="M2125 709 c-8 -11 -128 -66 -240 -107 -135 -51 -276 -90 -390 -108 -16 -3 -41 -7 -55 -10 -138 -24 -481 -24 -625 1 -208 36 -360 78 -510 139 -106 44 -118 46 -123 25 -7 -38 297 -206 483 -267 163 -54 303 -76 490 -76 171 -1 265 11 435 55 201 53 405 150 542 259 59 47 74 72 54 89 -13 11 -55 11 -61 0z" transform="translate(0.000000,256.000000) scale(0.100000,-0.100000)"/></g></svg>